<mxfile host="app.diagrams.net" modified="2020-10-04T06:50:52.123Z" agent="5.0 (Windows NT 10.0; Win64; x64) AppleWebKit/537.36 (KHTML, like Gecko) Chrome/85.0.4183.121 Safari/537.36" etag="0VeX1ThA_6hMBcewHyDg" version="13.7.7" type="github" pages="2">
  <diagram id="kFRTyi1MDRZvBUj16snM" name="stages of age">
    <mxGraphModel dx="723" dy="1510" grid="1" gridSize="10" guides="1" tooltips="1" connect="1" arrows="1" fold="1" page="1" pageScale="1" pageWidth="850" pageHeight="1100" math="0" shadow="0">
      <root>
        <mxCell id="-1mWHFREd10I_c0X0dwA-0" />
        <mxCell id="-1mWHFREd10I_c0X0dwA-1" parent="-1mWHFREd10I_c0X0dwA-0" />
        <mxCell id="-1mWHFREd10I_c0X0dwA-4" value="" style="edgeStyle=orthogonalEdgeStyle;rounded=0;orthogonalLoop=1;jettySize=auto;html=1;" parent="-1mWHFREd10I_c0X0dwA-1" source="-1mWHFREd10I_c0X0dwA-2" target="-1mWHFREd10I_c0X0dwA-3" edge="1">
          <mxGeometry relative="1" as="geometry" />
        </mxCell>
        <mxCell id="-1mWHFREd10I_c0X0dwA-2" value="start" style="rounded=1;whiteSpace=wrap;html=1;" parent="-1mWHFREd10I_c0X0dwA-1" vertex="1">
          <mxGeometry x="305" y="-370" width="120" height="60" as="geometry" />
        </mxCell>
        <mxCell id="-1mWHFREd10I_c0X0dwA-6" value="" style="edgeStyle=orthogonalEdgeStyle;rounded=0;orthogonalLoop=1;jettySize=auto;html=1;" parent="-1mWHFREd10I_c0X0dwA-1" source="-1mWHFREd10I_c0X0dwA-3" target="-1mWHFREd10I_c0X0dwA-5" edge="1">
          <mxGeometry relative="1" as="geometry" />
        </mxCell>
        <mxCell id="-1mWHFREd10I_c0X0dwA-3" value="scan&amp;nbsp; :&amp;nbsp; age" style="shape=parallelogram;perimeter=parallelogramPerimeter;whiteSpace=wrap;html=1;fixedSize=1;rounded=1;" parent="-1mWHFREd10I_c0X0dwA-1" vertex="1">
          <mxGeometry x="305" y="-230" width="120" height="60" as="geometry" />
        </mxCell>
        <mxCell id="-1mWHFREd10I_c0X0dwA-8" value="" style="edgeStyle=orthogonalEdgeStyle;rounded=0;orthogonalLoop=1;jettySize=auto;html=1;" parent="-1mWHFREd10I_c0X0dwA-1" source="-1mWHFREd10I_c0X0dwA-5" target="-1mWHFREd10I_c0X0dwA-7" edge="1">
          <mxGeometry relative="1" as="geometry" />
        </mxCell>
        <mxCell id="-1mWHFREd10I_c0X0dwA-10" value="" style="edgeStyle=orthogonalEdgeStyle;rounded=0;orthogonalLoop=1;jettySize=auto;html=1;" parent="-1mWHFREd10I_c0X0dwA-1" source="-1mWHFREd10I_c0X0dwA-5" target="-1mWHFREd10I_c0X0dwA-9" edge="1">
          <mxGeometry relative="1" as="geometry" />
        </mxCell>
        <mxCell id="-1mWHFREd10I_c0X0dwA-5" value="if ( age&amp;gt;0&amp;nbsp; &amp;amp;&amp;amp;&lt;br&gt;age&amp;lt;=5)" style="rhombus;whiteSpace=wrap;html=1;rounded=1;" parent="-1mWHFREd10I_c0X0dwA-1" vertex="1">
          <mxGeometry x="290" y="-110" width="150" height="100" as="geometry" />
        </mxCell>
        <mxCell id="-1mWHFREd10I_c0X0dwA-7" value="printf(&quot;tollder&quot;)" style="shape=parallelogram;perimeter=parallelogramPerimeter;whiteSpace=wrap;html=1;fixedSize=1;rounded=1;" parent="-1mWHFREd10I_c0X0dwA-1" vertex="1">
          <mxGeometry x="465" y="-90" width="120" height="60" as="geometry" />
        </mxCell>
        <mxCell id="-1mWHFREd10I_c0X0dwA-12" value="" style="edgeStyle=orthogonalEdgeStyle;rounded=0;orthogonalLoop=1;jettySize=auto;html=1;" parent="-1mWHFREd10I_c0X0dwA-1" source="-1mWHFREd10I_c0X0dwA-9" target="-1mWHFREd10I_c0X0dwA-11" edge="1">
          <mxGeometry relative="1" as="geometry" />
        </mxCell>
        <mxCell id="-1mWHFREd10I_c0X0dwA-14" value="" style="edgeStyle=orthogonalEdgeStyle;rounded=0;orthogonalLoop=1;jettySize=auto;html=1;" parent="-1mWHFREd10I_c0X0dwA-1" source="-1mWHFREd10I_c0X0dwA-9" target="-1mWHFREd10I_c0X0dwA-13" edge="1">
          <mxGeometry relative="1" as="geometry" />
        </mxCell>
        <mxCell id="-1mWHFREd10I_c0X0dwA-9" value="if(age&amp;gt;5&lt;br&gt;&amp;amp;&amp;amp;&lt;br&gt;age&amp;lt;=10)" style="rhombus;whiteSpace=wrap;html=1;rounded=1;" parent="-1mWHFREd10I_c0X0dwA-1" vertex="1">
          <mxGeometry x="290" y="50" width="150" height="120" as="geometry" />
        </mxCell>
        <mxCell id="-1mWHFREd10I_c0X0dwA-11" value="printf(&quot;chaild&quot;)" style="shape=parallelogram;perimeter=parallelogramPerimeter;whiteSpace=wrap;html=1;fixedSize=1;rounded=1;" parent="-1mWHFREd10I_c0X0dwA-1" vertex="1">
          <mxGeometry x="535" y="80" width="120" height="60" as="geometry" />
        </mxCell>
        <mxCell id="-1mWHFREd10I_c0X0dwA-16" value="" style="edgeStyle=orthogonalEdgeStyle;rounded=0;orthogonalLoop=1;jettySize=auto;html=1;" parent="-1mWHFREd10I_c0X0dwA-1" source="-1mWHFREd10I_c0X0dwA-13" target="-1mWHFREd10I_c0X0dwA-15" edge="1">
          <mxGeometry relative="1" as="geometry" />
        </mxCell>
        <mxCell id="-1mWHFREd10I_c0X0dwA-18" value="" style="edgeStyle=orthogonalEdgeStyle;rounded=0;orthogonalLoop=1;jettySize=auto;html=1;" parent="-1mWHFREd10I_c0X0dwA-1" source="-1mWHFREd10I_c0X0dwA-13" target="-1mWHFREd10I_c0X0dwA-17" edge="1">
          <mxGeometry relative="1" as="geometry" />
        </mxCell>
        <mxCell id="-1mWHFREd10I_c0X0dwA-13" value="if (age&amp;gt;10&lt;br&gt;&amp;amp;&amp;amp;&lt;br&gt;age&amp;lt;20)" style="rhombus;whiteSpace=wrap;html=1;rounded=1;" parent="-1mWHFREd10I_c0X0dwA-1" vertex="1">
          <mxGeometry x="290" y="250" width="150" height="120" as="geometry" />
        </mxCell>
        <mxCell id="-1mWHFREd10I_c0X0dwA-15" value="printf(&quot;teenager&quot;)" style="shape=parallelogram;perimeter=parallelogramPerimeter;whiteSpace=wrap;html=1;fixedSize=1;rounded=1;" parent="-1mWHFREd10I_c0X0dwA-1" vertex="1">
          <mxGeometry x="535" y="280" width="120" height="60" as="geometry" />
        </mxCell>
        <mxCell id="-1mWHFREd10I_c0X0dwA-20" value="" style="edgeStyle=orthogonalEdgeStyle;rounded=0;orthogonalLoop=1;jettySize=auto;html=1;" parent="-1mWHFREd10I_c0X0dwA-1" source="-1mWHFREd10I_c0X0dwA-17" target="-1mWHFREd10I_c0X0dwA-19" edge="1">
          <mxGeometry relative="1" as="geometry" />
        </mxCell>
        <mxCell id="-1mWHFREd10I_c0X0dwA-22" value="" style="edgeStyle=orthogonalEdgeStyle;rounded=0;orthogonalLoop=1;jettySize=auto;html=1;" parent="-1mWHFREd10I_c0X0dwA-1" source="-1mWHFREd10I_c0X0dwA-17" target="-1mWHFREd10I_c0X0dwA-21" edge="1">
          <mxGeometry relative="1" as="geometry" />
        </mxCell>
        <mxCell id="-1mWHFREd10I_c0X0dwA-17" value="if(age&amp;gt;=20&lt;br&gt;&amp;amp;&amp;amp;&lt;br&gt;age&amp;lt;=50)" style="rhombus;whiteSpace=wrap;html=1;rounded=1;" parent="-1mWHFREd10I_c0X0dwA-1" vertex="1">
          <mxGeometry x="290" y="450" width="150" height="120" as="geometry" />
        </mxCell>
        <mxCell id="-1mWHFREd10I_c0X0dwA-19" value="printf(&quot;adult&quot;)" style="shape=parallelogram;perimeter=parallelogramPerimeter;whiteSpace=wrap;html=1;fixedSize=1;rounded=1;" parent="-1mWHFREd10I_c0X0dwA-1" vertex="1">
          <mxGeometry x="535" y="480" width="120" height="60" as="geometry" />
        </mxCell>
        <mxCell id="-1mWHFREd10I_c0X0dwA-24" value="" style="edgeStyle=orthogonalEdgeStyle;rounded=0;orthogonalLoop=1;jettySize=auto;html=1;" parent="-1mWHFREd10I_c0X0dwA-1" source="-1mWHFREd10I_c0X0dwA-21" target="-1mWHFREd10I_c0X0dwA-23" edge="1">
          <mxGeometry relative="1" as="geometry" />
        </mxCell>
        <mxCell id="-1mWHFREd10I_c0X0dwA-26" value="" style="edgeStyle=orthogonalEdgeStyle;rounded=0;orthogonalLoop=1;jettySize=auto;html=1;entryX=0.5;entryY=0;entryDx=0;entryDy=0;" parent="-1mWHFREd10I_c0X0dwA-1" source="-1mWHFREd10I_c0X0dwA-21" target="-1mWHFREd10I_c0X0dwA-40" edge="1">
          <mxGeometry relative="1" as="geometry">
            <mxPoint x="365" y="960" as="targetPoint" />
          </mxGeometry>
        </mxCell>
        <mxCell id="-1mWHFREd10I_c0X0dwA-21" value="if(age&amp;gt;50&lt;br&gt;&amp;amp;&amp;amp;&lt;br&gt;age&amp;lt;=150)" style="rhombus;whiteSpace=wrap;html=1;rounded=1;" parent="-1mWHFREd10I_c0X0dwA-1" vertex="1">
          <mxGeometry x="290" y="650" width="150" height="120" as="geometry" />
        </mxCell>
        <mxCell id="-1mWHFREd10I_c0X0dwA-23" value="printf(&quot;old&quot;)" style="shape=parallelogram;perimeter=parallelogramPerimeter;whiteSpace=wrap;html=1;fixedSize=1;rounded=1;" parent="-1mWHFREd10I_c0X0dwA-1" vertex="1">
          <mxGeometry x="535" y="680" width="120" height="60" as="geometry" />
        </mxCell>
        <mxCell id="-1mWHFREd10I_c0X0dwA-27" value="&lt;span style=&quot;color: rgba(0 , 0 , 0 , 0) ; font-family: monospace ; font-size: 0px&quot;&gt;fff&lt;/span&gt;" style="text;html=1;align=center;verticalAlign=middle;resizable=0;points=[];autosize=1;" parent="-1mWHFREd10I_c0X0dwA-1" vertex="1">
          <mxGeometry x="330" y="790" width="20" height="20" as="geometry" />
        </mxCell>
        <mxCell id="-1mWHFREd10I_c0X0dwA-28" value="true" style="text;html=1;align=center;verticalAlign=middle;resizable=0;points=[];autosize=1;" parent="-1mWHFREd10I_c0X0dwA-1" vertex="1">
          <mxGeometry x="460" y="680" width="40" height="20" as="geometry" />
        </mxCell>
        <mxCell id="-1mWHFREd10I_c0X0dwA-29" value="true" style="text;html=1;align=center;verticalAlign=middle;resizable=0;points=[];autosize=1;" parent="-1mWHFREd10I_c0X0dwA-1" vertex="1">
          <mxGeometry x="460" y="490" width="40" height="20" as="geometry" />
        </mxCell>
        <mxCell id="-1mWHFREd10I_c0X0dwA-30" value="true" style="text;html=1;align=center;verticalAlign=middle;resizable=0;points=[];autosize=1;" parent="-1mWHFREd10I_c0X0dwA-1" vertex="1">
          <mxGeometry x="470" y="290" width="40" height="20" as="geometry" />
        </mxCell>
        <mxCell id="-1mWHFREd10I_c0X0dwA-31" value="true" style="text;html=1;align=center;verticalAlign=middle;resizable=0;points=[];autosize=1;" parent="-1mWHFREd10I_c0X0dwA-1" vertex="1">
          <mxGeometry x="450" y="90" width="40" height="20" as="geometry" />
        </mxCell>
        <mxCell id="-1mWHFREd10I_c0X0dwA-33" value="false" style="text;html=1;align=center;verticalAlign=middle;resizable=0;points=[];autosize=1;" parent="-1mWHFREd10I_c0X0dwA-1" vertex="1">
          <mxGeometry x="330" y="600" width="40" height="20" as="geometry" />
        </mxCell>
        <mxCell id="-1mWHFREd10I_c0X0dwA-34" value="false" style="text;html=1;align=center;verticalAlign=middle;resizable=0;points=[];autosize=1;" parent="-1mWHFREd10I_c0X0dwA-1" vertex="1">
          <mxGeometry x="320" y="390" width="40" height="20" as="geometry" />
        </mxCell>
        <mxCell id="-1mWHFREd10I_c0X0dwA-35" value="false" style="text;html=1;align=center;verticalAlign=middle;resizable=0;points=[];autosize=1;" parent="-1mWHFREd10I_c0X0dwA-1" vertex="1">
          <mxGeometry x="330" y="190" width="40" height="20" as="geometry" />
        </mxCell>
        <mxCell id="-1mWHFREd10I_c0X0dwA-36" value="false" style="text;html=1;align=center;verticalAlign=middle;resizable=0;points=[];autosize=1;" parent="-1mWHFREd10I_c0X0dwA-1" vertex="1">
          <mxGeometry x="330" width="40" height="20" as="geometry" />
        </mxCell>
        <mxCell id="-1mWHFREd10I_c0X0dwA-37" value="true" style="text;html=1;align=center;verticalAlign=middle;resizable=0;points=[];autosize=1;" parent="-1mWHFREd10I_c0X0dwA-1" vertex="1">
          <mxGeometry x="430" y="-90" width="40" height="20" as="geometry" />
        </mxCell>
        <mxCell id="-1mWHFREd10I_c0X0dwA-43" value="" style="edgeStyle=orthogonalEdgeStyle;rounded=0;orthogonalLoop=1;jettySize=auto;html=1;" parent="-1mWHFREd10I_c0X0dwA-1" source="-1mWHFREd10I_c0X0dwA-40" target="-1mWHFREd10I_c0X0dwA-42" edge="1">
          <mxGeometry relative="1" as="geometry" />
        </mxCell>
        <mxCell id="-1mWHFREd10I_c0X0dwA-40" value="if (age&amp;lt;=0&lt;br&gt;&amp;amp;&amp;amp;&lt;br&gt;age&amp;gt;=150)" style="rhombus;whiteSpace=wrap;html=1;rounded=1;" parent="-1mWHFREd10I_c0X0dwA-1" vertex="1">
          <mxGeometry x="290" y="1050" width="150" height="120" as="geometry" />
        </mxCell>
        <mxCell id="-1mWHFREd10I_c0X0dwA-42" value="printf(&quot;invalid age&quot;)" style="shape=parallelogram;perimeter=parallelogramPerimeter;whiteSpace=wrap;html=1;fixedSize=1;rounded=1;" parent="-1mWHFREd10I_c0X0dwA-1" vertex="1">
          <mxGeometry x="100" y="1080" width="120" height="60" as="geometry" />
        </mxCell>
        <mxCell id="-1mWHFREd10I_c0X0dwA-44" value="" style="endArrow=classic;html=1;" parent="-1mWHFREd10I_c0X0dwA-1" edge="1">
          <mxGeometry width="50" height="50" relative="1" as="geometry">
            <mxPoint x="160" y="1080" as="sourcePoint" />
            <mxPoint x="160" y="-140" as="targetPoint" />
            <Array as="points" />
          </mxGeometry>
        </mxCell>
        <mxCell id="-1mWHFREd10I_c0X0dwA-45" value="" style="endArrow=classic;html=1;" parent="-1mWHFREd10I_c0X0dwA-1" edge="1">
          <mxGeometry width="50" height="50" relative="1" as="geometry">
            <mxPoint x="160" y="-140" as="sourcePoint" />
            <mxPoint x="370" y="-140" as="targetPoint" />
          </mxGeometry>
        </mxCell>
        <mxCell id="-1mWHFREd10I_c0X0dwA-46" value="" style="endArrow=classic;html=1;" parent="-1mWHFREd10I_c0X0dwA-1" edge="1">
          <mxGeometry width="50" height="50" relative="1" as="geometry">
            <mxPoint x="570" y="-55" as="sourcePoint" />
            <mxPoint x="720" y="1081" as="targetPoint" />
            <Array as="points">
              <mxPoint x="720" y="-60" />
            </Array>
          </mxGeometry>
        </mxCell>
        <mxCell id="-1mWHFREd10I_c0X0dwA-48" value="" style="endArrow=classic;html=1;" parent="-1mWHFREd10I_c0X0dwA-1" edge="1">
          <mxGeometry width="50" height="50" relative="1" as="geometry">
            <mxPoint x="640" y="709.5" as="sourcePoint" />
            <mxPoint x="720" y="709.5" as="targetPoint" />
          </mxGeometry>
        </mxCell>
        <mxCell id="-1mWHFREd10I_c0X0dwA-49" value="" style="endArrow=classic;html=1;" parent="-1mWHFREd10I_c0X0dwA-1" edge="1">
          <mxGeometry width="50" height="50" relative="1" as="geometry">
            <mxPoint x="640" y="509.5" as="sourcePoint" />
            <mxPoint x="720" y="509.5" as="targetPoint" />
          </mxGeometry>
        </mxCell>
        <mxCell id="-1mWHFREd10I_c0X0dwA-50" value="" style="endArrow=classic;html=1;" parent="-1mWHFREd10I_c0X0dwA-1" edge="1">
          <mxGeometry width="50" height="50" relative="1" as="geometry">
            <mxPoint x="640" y="120" as="sourcePoint" />
            <mxPoint x="720" y="120" as="targetPoint" />
          </mxGeometry>
        </mxCell>
        <mxCell id="-1mWHFREd10I_c0X0dwA-51" value="" style="endArrow=classic;html=1;" parent="-1mWHFREd10I_c0X0dwA-1" edge="1">
          <mxGeometry width="50" height="50" relative="1" as="geometry">
            <mxPoint x="640" y="309.5" as="sourcePoint" />
            <mxPoint x="720" y="309.5" as="targetPoint" />
          </mxGeometry>
        </mxCell>
        <mxCell id="-1mWHFREd10I_c0X0dwA-52" value="stop" style="rounded=1;whiteSpace=wrap;html=1;" parent="-1mWHFREd10I_c0X0dwA-1" vertex="1">
          <mxGeometry x="655" y="1080" width="120" height="60" as="geometry" />
        </mxCell>
        <mxCell id="eel7kByLTdwRlXj0z6kr-0" value="false" style="text;html=1;align=center;verticalAlign=middle;resizable=0;points=[];autosize=1;" vertex="1" parent="-1mWHFREd10I_c0X0dwA-1">
          <mxGeometry x="360" y="790" width="40" height="20" as="geometry" />
        </mxCell>
      </root>
    </mxGraphModel>
  </diagram>
  <diagram id="edt_4Mvag3VUtQRKcfT4" name="correct &amp; incorrect password">
    <mxGraphModel dx="868" dy="492" grid="1" gridSize="10" guides="1" tooltips="1" connect="1" arrows="1" fold="1" page="1" pageScale="1" pageWidth="850" pageHeight="1100" math="0" shadow="0">
      <root>
        <mxCell id="CcNIp21JCOd3cIhzDhMX-0" />
        <mxCell id="CcNIp21JCOd3cIhzDhMX-1" parent="CcNIp21JCOd3cIhzDhMX-0" />
        <mxCell id="CcNIp21JCOd3cIhzDhMX-4" value="" style="edgeStyle=orthogonalEdgeStyle;rounded=0;orthogonalLoop=1;jettySize=auto;html=1;" edge="1" parent="CcNIp21JCOd3cIhzDhMX-1" source="CcNIp21JCOd3cIhzDhMX-2" target="CcNIp21JCOd3cIhzDhMX-3">
          <mxGeometry relative="1" as="geometry" />
        </mxCell>
        <mxCell id="CcNIp21JCOd3cIhzDhMX-2" value="start" style="rounded=1;whiteSpace=wrap;html=1;" vertex="1" parent="CcNIp21JCOd3cIhzDhMX-1">
          <mxGeometry x="290" y="80" width="120" height="60" as="geometry" />
        </mxCell>
        <mxCell id="CcNIp21JCOd3cIhzDhMX-6" value="" style="edgeStyle=orthogonalEdgeStyle;rounded=0;orthogonalLoop=1;jettySize=auto;html=1;" edge="1" parent="CcNIp21JCOd3cIhzDhMX-1" source="CcNIp21JCOd3cIhzDhMX-3" target="CcNIp21JCOd3cIhzDhMX-5">
          <mxGeometry relative="1" as="geometry" />
        </mxCell>
        <mxCell id="CcNIp21JCOd3cIhzDhMX-3" value="scanf(&quot;password&quot;)" style="shape=parallelogram;perimeter=parallelogramPerimeter;whiteSpace=wrap;html=1;fixedSize=1;rounded=1;" vertex="1" parent="CcNIp21JCOd3cIhzDhMX-1">
          <mxGeometry x="290" y="220" width="120" height="60" as="geometry" />
        </mxCell>
        <mxCell id="CcNIp21JCOd3cIhzDhMX-8" value="" style="edgeStyle=orthogonalEdgeStyle;rounded=0;orthogonalLoop=1;jettySize=auto;html=1;" edge="1" parent="CcNIp21JCOd3cIhzDhMX-1" source="CcNIp21JCOd3cIhzDhMX-5" target="CcNIp21JCOd3cIhzDhMX-7">
          <mxGeometry relative="1" as="geometry" />
        </mxCell>
        <mxCell id="CcNIp21JCOd3cIhzDhMX-10" value="" style="edgeStyle=orthogonalEdgeStyle;rounded=0;orthogonalLoop=1;jettySize=auto;html=1;" edge="1" parent="CcNIp21JCOd3cIhzDhMX-1" source="CcNIp21JCOd3cIhzDhMX-5" target="CcNIp21JCOd3cIhzDhMX-9">
          <mxGeometry relative="1" as="geometry" />
        </mxCell>
        <mxCell id="CcNIp21JCOd3cIhzDhMX-5" value="if ( password==600)" style="rhombus;whiteSpace=wrap;html=1;rounded=1;" vertex="1" parent="CcNIp21JCOd3cIhzDhMX-1">
          <mxGeometry x="270" y="340" width="160" height="120" as="geometry" />
        </mxCell>
        <mxCell id="CcNIp21JCOd3cIhzDhMX-7" value="printf(&lt;br&gt;&quot;pasword is valid&quot;)" style="shape=parallelogram;perimeter=parallelogramPerimeter;whiteSpace=wrap;html=1;fixedSize=1;rounded=1;" vertex="1" parent="CcNIp21JCOd3cIhzDhMX-1">
          <mxGeometry x="520" y="360" width="160" height="80" as="geometry" />
        </mxCell>
        <mxCell id="CcNIp21JCOd3cIhzDhMX-9" value="printf(&quot;password is&lt;br&gt;&amp;nbsp;incorrect&quot;)&lt;br&gt;&lt;br&gt;scanf(&quot;valid password&quot;)" style="shape=parallelogram;perimeter=parallelogramPerimeter;whiteSpace=wrap;html=1;fixedSize=1;rounded=1;" vertex="1" parent="CcNIp21JCOd3cIhzDhMX-1">
          <mxGeometry x="20" y="340" width="160" height="120" as="geometry" />
        </mxCell>
        <mxCell id="CcNIp21JCOd3cIhzDhMX-12" value="" style="endArrow=classic;html=1;" edge="1" parent="CcNIp21JCOd3cIhzDhMX-1">
          <mxGeometry width="50" height="50" relative="1" as="geometry">
            <mxPoint x="100" y="340" as="sourcePoint" />
            <mxPoint x="350" y="320" as="targetPoint" />
            <Array as="points">
              <mxPoint x="100" y="320" />
            </Array>
          </mxGeometry>
        </mxCell>
        <mxCell id="CcNIp21JCOd3cIhzDhMX-13" value="" style="endArrow=classic;html=1;" edge="1" parent="CcNIp21JCOd3cIhzDhMX-1" target="CcNIp21JCOd3cIhzDhMX-14">
          <mxGeometry width="50" height="50" relative="1" as="geometry">
            <mxPoint x="600" y="360" as="sourcePoint" />
            <mxPoint x="600" y="300" as="targetPoint" />
          </mxGeometry>
        </mxCell>
        <mxCell id="CcNIp21JCOd3cIhzDhMX-14" value="end" style="rounded=1;whiteSpace=wrap;html=1;" vertex="1" parent="CcNIp21JCOd3cIhzDhMX-1">
          <mxGeometry x="540" y="270" width="120" height="60" as="geometry" />
        </mxCell>
        <mxCell id="CcNIp21JCOd3cIhzDhMX-17" value="yes" style="text;html=1;align=center;verticalAlign=middle;resizable=0;points=[];autosize=1;" vertex="1" parent="CcNIp21JCOd3cIhzDhMX-1">
          <mxGeometry x="445" y="370" width="30" height="20" as="geometry" />
        </mxCell>
        <mxCell id="CcNIp21JCOd3cIhzDhMX-18" value="no" style="text;html=1;align=center;verticalAlign=middle;resizable=0;points=[];autosize=1;" vertex="1" parent="CcNIp21JCOd3cIhzDhMX-1">
          <mxGeometry x="205" y="370" width="30" height="20" as="geometry" />
        </mxCell>
      </root>
    </mxGraphModel>
  </diagram>
</mxfile>
